<svg version="1.0" xmlns="http://www.w3.org/2000/svg"
 width="512.000000pt" height="512.000000pt" viewBox="0 0 512.000000 512.000000"
 preserveAspectRatio="xMidYMid meet">

<g transform="translate(0.000000,512.000000) scale(0.100000,-0.100000)"
fill="#000000" stroke="none">
<path d="M1085 5106 c-188 -30 -411 -122 -561 -233 -284 -211 -472 -531 -514
-875 -8 -67 -10 -491 -8 -1493 4 -1299 5 -1405 22 -1475 65 -274 169 -466 355
-651 149 -150 297 -243 486 -307 208 -71 88 -66 1645 -70 1036 -2 1428 0 1494
8 433 58 796 320 987 715 63 130 100 253 119 391 8 66 10 458 8 1494 -4 1303
-5 1410 -22 1480 -65 274 -169 466 -355 651 -203 204 -435 321 -721 364 -130
20 -2808 20 -2935 1z"/>
</g>
</svg>
